<?xml version="1.0" encoding="iso-8859-1"?>
<!-- Generator: Adobe Illustrator 19.0.0, SVG Export Plug-In . SVG Version: 6.00 Build 0)  -->
<svg version="1.1" id="Layer_1" xmlns="http://www.w3.org/2000/svg" xmlns:xlink="http://www.w3.org/1999/xlink" x="0px" y="0px"
	 viewBox="0 0 512 512" style="enable-background:new 0 0 512 512;" xml:space="preserve">
<rect y="0" style="fill:#FFD55C;" width="512" height="512"/>
<path style="fill:#2B4457;" d="M120.545,224.804c-0.466-0.12-0.929-0.049-1.311,0.172l-8.348,4.826
	c-0.381,0.223-0.689,0.589-0.804,1.034c-0.133,0.474-0.059,0.929,0.146,1.311l32.876,59.51l13.588-7.849l-35.1-58.214
	C121.37,225.216,120.998,224.914,120.545,224.804z"/>
<path style="fill:#526677;" d="M118.84,225.216l-32.663-56.571c-0.556-0.963-1.492-1.723-2.642-2.025
	c-1.178-0.32-2.348-0.138-3.3,0.425c-0.973,0.556-1.736,1.485-2.038,2.642c-0.315,1.165-0.12,2.345,0.435,3.315l32.653,56.553
	L118.84,225.216z"/>
<g>
	
		<rect x="88.438" y="177.695" transform="matrix(0.5039 0.8638 -0.8638 0.5039 201.3476 13.5469)" style="fill:#FFFFFF;" width="0.886" height="8.717"/>
	
		<rect x="90.779" y="181.765" transform="matrix(0.4995 0.8663 -0.8663 0.4995 206.8943 14.1256)" style="fill:#FFFFFF;" width="0.886" height="8.712"/>
</g>
<path style="fill:#2B4457;" d="M391.45,224.804c0.466-0.12,0.922-0.049,1.303,0.172l8.366,4.826
	c0.379,0.223,0.673,0.589,0.806,1.034c0.12,0.474,0.054,0.929-0.151,1.311l-32.883,59.507l-13.578-7.849l35.09-58.214
	C390.63,225.216,390.996,224.914,391.45,224.804z"/>
<path style="fill:#526677;" d="M393.17,225.216l32.658-56.568c0.556-0.963,1.492-1.723,2.652-2.025
	c1.152-0.32,2.33-0.138,3.287,0.425c0.973,0.556,1.72,1.485,2.03,2.642c0.32,1.165,0.131,2.345-0.435,3.315l-32.653,56.553
	L393.17,225.216z"/>
<g>
	<polygon style="fill:#FFFFFF;" points="427.108,183.854 426.66,184.62 419.118,180.255 419.571,179.502 	"/>
	
		<rect x="420.33" y="181.749" transform="matrix(-0.5058 0.8627 -0.8627 -0.5058 794.1334 -82.7663)" style="fill:#FFFFFF;" width="0.891" height="8.697"/>
	<path style="fill:#FFFFFF;" d="M107.551,279.319c-1.009,0-2.02,0.394-2.798,1.162c-0.771,0.768-1.16,1.792-1.16,2.796v60.931
		c0,0.346,0.131,0.689,0.387,0.945c0.253,0.256,0.596,0.379,0.929,0.379h302.18c0.343,0,0.681-0.125,0.937-0.379
		c0.264-0.259,0.387-0.599,0.387-0.945v-60.931c0-1.004-0.387-2.028-1.165-2.796c-0.768-0.768-1.784-1.162-2.803-1.162H107.551z"/>
</g>
<path style="fill:#2B4457;" d="M356.152,345.534H155.848v-37.45c0-1.549,0.586-3.126,1.777-4.311
	c1.208-1.193,2.762-1.784,4.311-1.784h188.132c1.554,0,3.116,0.591,4.311,1.784c1.183,1.185,1.774,2.76,1.774,4.311V345.534z"/>
<path style="fill:#21D8DE;" d="M338.729,325.753c0,1.449-1.172,2.642-2.639,2.642H175.903c-1.439,0-2.642-1.193-2.642-2.642v-3.973
	c0-1.446,1.203-2.639,2.642-2.639H336.09c1.467,0,2.639,1.193,2.639,2.639L338.729,325.753L338.729,325.753z"/>
<g>
	<path style="fill:#FFFFFF;" d="M190.556,323.771c0,1.011-0.835,1.83-1.851,1.83c-1.021,0-1.856-0.819-1.856-1.83
		c0-1.029,0.835-1.859,1.856-1.859C189.722,321.913,190.556,322.739,190.556,323.771z"/>
	<path style="fill:#FFFFFF;" d="M205.814,323.771c0,1.011-0.824,1.838-1.846,1.838c-1.027,0-1.861-0.827-1.861-1.838
		c0-1.029,0.835-1.866,1.861-1.866C204.989,321.905,205.814,322.739,205.814,323.771z"/>
	<path style="fill:#FFFFFF;" d="M221.074,323.771c0,1.011-0.835,1.838-1.851,1.838c-1.027,0-1.856-0.827-1.856-1.838
		c0-1.029,0.827-1.859,1.856-1.859C220.242,321.913,221.074,322.739,221.074,323.771z"/>
	<path style="fill:#FFFFFF;" d="M236.332,323.771c0,1.011-0.822,1.838-1.843,1.838c-1.027,0-1.851-0.827-1.851-1.838
		c0-1.029,0.824-1.859,1.851-1.859C235.51,321.913,236.332,322.739,236.332,323.771z"/>
	<path style="fill:#FFFFFF;" d="M251.579,323.771c0,1.011-0.814,1.838-1.843,1.838c-1.019,0-1.856-0.827-1.856-1.838
		c0-1.029,0.835-1.859,1.856-1.859C250.765,321.913,251.579,322.739,251.579,323.771z"/>
	<path style="fill:#FFFFFF;" d="M266.844,323.771c0,1.011-0.824,1.838-1.846,1.838c-1.027,0-1.856-0.827-1.856-1.838
		c0-1.029,0.827-1.859,1.856-1.859C266.02,321.913,266.844,322.739,266.844,323.771z"/>
	<path style="fill:#FFFFFF;" d="M282.117,323.771c0,1.011-0.832,1.838-1.856,1.838c-1.027,0-1.851-0.827-1.851-1.838
		c0-1.029,0.822-1.859,1.851-1.859C281.285,321.913,282.117,322.739,282.117,323.771z"/>
</g>
<path style="fill:#FF6D3B;" d="M401.285,331.687c0,0.724-0.586,1.318-1.318,1.318H370.89c-0.732,0-1.318-0.591-1.318-1.318v-15.854
	c0-0.732,0.586-1.326,1.318-1.326h29.076c0.732,0,1.318,0.591,1.318,1.326V331.687z"/>
<path style="fill:#2B4457;" d="M386.916,323.771c0,2.539-2.074,4.611-4.634,4.611c-2.547,0-4.618-2.071-4.618-4.611
	c0-2.56,2.071-4.639,4.618-4.639C384.842,319.132,386.916,321.211,386.916,323.771z"/>
<g>
	<rect x="185.395" y="335.079" style="fill:#FFFFFF;" width="6.6" height="1.326"/>
	<rect x="200.653" y="335.079" style="fill:#FFFFFF;" width="6.607" height="1.326"/>
	<rect x="215.91" y="335.079" style="fill:#FFFFFF;" width="6.597" height="1.326"/>
	<rect x="231.168" y="335.079" style="fill:#FFFFFF;" width="6.6" height="1.326"/>
	<rect x="246.426" y="335.079" style="fill:#FFFFFF;" width="6.607" height="1.326"/>
	<rect x="261.683" y="335.079" style="fill:#FFFFFF;" width="6.62" height="1.326"/>
	<rect x="276.915" y="335.079" style="fill:#FFFFFF;" width="6.607" height="1.326"/>
	<rect x="302.822" y="335.079" style="fill:#FFFFFF;" width="23.795" height="1.326"/>
</g>
<g>
	<path style="fill:#2B4457;" d="M411.059,338.128c0,0.328-0.138,0.673-0.387,0.934c-0.264,0.251-0.599,0.374-0.937,0.374h-1.324
		v-51.389h1.324c0.338,0,0.676,0.141,0.937,0.381c0.251,0.264,0.387,0.607,0.387,0.942V338.128z"/>
	<path style="fill:#2B4457;" d="M103.593,339.438h-1.326c-0.333,0-0.676-0.125-0.929-0.374c-0.266-0.264-0.394-0.607-0.394-0.934
		v-48.755c0-0.335,0.128-0.681,0.394-0.942c0.253-0.243,0.596-0.381,0.929-0.381h1.326V339.438z"/>
</g>
<path style="fill:#E6E5E5;" d="M404.444,279.319H107.551c-1.009,0-2.02,0.394-2.798,1.162c-0.771,0.768-1.16,1.792-1.16,2.796v4.769
	h304.819v-4.769c0-1.004-0.387-2.028-1.165-2.796C406.479,279.716,405.463,279.319,404.444,279.319z"/>
<g>
</g>
<g>
</g>
<g>
</g>
<g>
</g>
<g>
</g>
<g>
</g>
<g>
</g>
<g>
</g>
<g>
</g>
<g>
</g>
<g>
</g>
<g>
</g>
<g>
</g>
<g>
</g>
<g>
</g>
</svg>
